<svg class="!bg-transparent" height="26" id="icon_forward_26" viewBox="0 0 26 26" width="26" xmlns="http://www.w3.org/2000/svg"><rect data-name="사각형 845" fill="none" height="26" id="사각형_845" width="26"></rect><path d="M3921.225-9856.463a1.046,1.046,0,0,1-.218-.773,1.049,1.049,0,0,1,.394-.7l10.289-8.095-10.289-8.095a1.052,1.052,0,0,1-.176-1.476,1.041,1.041,0,0,1,.825-.4,1.045,1.045,0,0,1,.649.223l11.337,8.921a1.046,1.046,0,0,1,.4.825,1.051,1.051,0,0,1-.4.825l-11.337,8.918a1.036,1.036,0,0,1-.649.226A1.044,1.044,0,0,1,3921.225-9856.463Z" data-name="합치기 9" fill="#111" id="합치기_9" transform="translate(-3914.718 9879.03)"></path></svg>