<svg class="!bg-transparent" height="26" id="icon_back_26" viewBox="0 0 26 26" width="26" xmlns="http://www.w3.org/2000/svg"><rect data-name="사각형 845" fill="none" height="26" id="사각형_845" width="26"></rect><path d="M3982.738-9856.287l-11.337-8.918a1.046,1.046,0,0,1-.4-.825,1.041,1.041,0,0,1,.4-.825l11.337-8.921a1.038,1.038,0,0,1,.647-.223,1.046,1.046,0,0,1,.828.4,1.055,1.055,0,0,1-.176,1.476l-10.289,8.095,10.289,8.095a1.046,1.046,0,0,1,.392.7,1.044,1.044,0,0,1-.216.773,1.049,1.049,0,0,1-.828.4A1.029,1.029,0,0,1,3982.738-9856.287Z" data-name="합치기 10" fill="#111" id="합치기_10" transform="translate(-3964.719 9879.03)"></path></svg>