<svg class="!bg-transparent" height="26" id="icon_alarm_26" viewBox="0 0 26 26" width="26" xmlns="http://www.w3.org/2000/svg"><rect data-name="사각형 826" fill="none" height="26" id="사각형_826" width="26"></rect><g data-name="그룹 635" id="그룹_635" transform="translate(3.151 1.27)"><path d="M3759.387-9856.361a1.53,1.53,0,0,1-1.371-.846,1.53,1.53,0,0,1,.136-1.606l.865-1.17a6.035,6.035,0,0,0,1.173-3.562v-3.619a7.705,7.705,0,0,1,1.349-4.367,7.785,7.785,0,0,1,3.309-2.744,3.106,3.106,0,0,1,3.1-2.994,3.107,3.107,0,0,1,3.1,2.994,7.785,7.785,0,0,1,3.309,2.744,7.722,7.722,0,0,1,1.346,4.367v3.619a6.037,6.037,0,0,0,1.175,3.563l.865,1.17a1.531,1.531,0,0,1,.136,1.606,1.53,1.53,0,0,1-1.371.846Zm2.538-10.8v3.619a7.774,7.774,0,0,1-1.514,4.594l-.632.855h16.338l-.63-.855a7.77,7.77,0,0,1-1.515-4.594v-3.619a6.03,6.03,0,0,0-6.024-6.023A6.03,6.03,0,0,0,3761.925-9867.165Zm4.829-7.664a7.749,7.749,0,0,1,2.209-.027l-.369-.5-.677-.179A1.374,1.374,0,0,0,3766.754-9874.829Z" data-name="합치기 5" fill="#111" id="합치기_5" transform="translate(-3758.1 9877.02)"></path><path d="M3758.279-9875.654a.869.869,0,0,1-.4-.531.867.867,0,0,1,.092-.656.866.866,0,0,1,.749-.429.868.868,0,0,1,.436.116,4.38,4.38,0,0,0,1.257.432,4.328,4.328,0,0,0,.781.074,3.607,3.607,0,0,0,1.852-.5.889.889,0,0,1,.439-.118.872.872,0,0,1,.749.429.857.857,0,0,1,.089.656.866.866,0,0,1-.4.531,5.33,5.33,0,0,1-2.732.743A6.153,6.153,0,0,1,3758.279-9875.654Z" data-name="합치기 6" fill="#111" id="합치기_6" transform="translate(-3751.25 9898.62)"></path></g></svg>