<!DOCTYPE svg PUBLIC "-//W3C//DTD SVG 1.1//EN" "http://www.w3.org/Graphics/SVG/1.1/DTD/svg11.dtd">
<!-- Uploaded to: SVG Repo, www.svgrepo.com, Transformed by: SVG Repo Mixer Tools -->
<svg width="800px" height="800px" viewBox="0 0 32 32" fill="none" xmlns="http://www.w3.org/2000/svg">
<g id="SVGRepo_bgCarrier" stroke-width="0"/>
<g id="SVGRepo_tracerCarrier" stroke-linecap="round" stroke-linejoin="round"/>
<g id="SVGRepo_iconCarrier"> <g clip-path="url(#clip0_901_2559)"> <path d="M28.999 8.416L30 9C30.562 9.328 31 9.447 31 10V30C31 30.553 30.553 31 30 31H2C1.447 31 1 30.553 1 30V10C1 9.664 1.359 9.375 2 9L2.981 8.378M4 12L15 23C15.834 23.834 16.167 23.833 17 23L28 12M9.5 22.5L4 28M28 28L22.5 22.5M6 14V2C6 1.447 6.447 1 7 1H25C25.553 1 26 1.447 26 2V14M11 8H21M11 12H21" stroke="#08ac54" stroke-width="1.568" stroke-linecap="round" stroke-linejoin="round"/> </g> <defs> <clipPath id="clip0_901_2559"> <rect width="32" height="32" fill="white"/> </clipPath> </defs> </g>
</svg>